<svg width="40" height="40" viewBox="0 0 40 40" fill="none" xmlns="http://www.w3.org/2000/svg">
<rect x="0.5" y="0.5" width="39" height="39" rx="9.5" fill="#070B28"/>
<rect x="0.5" y="0.5" width="39" height="39" rx="9.5" stroke="#20202F"/>
<path d="M30.3948 22.7992C30.3956 23.8022 30.2022 24.7805 29.8189 25.7066C29.4348 26.6341 28.8807 27.4627 28.1727 28.1714C27.4626 28.8808 26.6332 29.4342 25.7071 29.8175C24.7824 30.2001 23.8062 30.3948 22.8059 30.3948H22.8002H22.7988H22.7692C21.1669 30.3948 19.5765 29.8726 18.2875 28.9231C16.9901 27.9674 16.0153 26.5924 15.5304 25.0049C15.3129 24.2892 15.2028 23.5488 15.2042 22.802V17.2009C15.2049 16.6673 15.4125 16.1662 15.7901 15.7885C16.1678 15.4116 16.669 15.2041 17.2012 15.2034C17.7341 15.2048 18.2353 15.4138 18.6123 15.79C18.9884 16.1669 19.1967 16.6681 19.1982 17.2003V22.7998C19.1988 23.7612 19.5743 24.6662 20.2562 25.3459C20.7616 25.8499 21.3991 26.1893 22.0993 26.327C22.7988 26.4661 23.5181 26.3948 24.1781 26.1216C24.8374 25.8485 25.3958 25.3911 25.7932 24.7975C26.1913 24.2045 26.4024 23.5142 26.4038 22.7992V11.6021C26.4038 11.3388 26.4546 11.0812 26.5555 10.8377C26.6558 10.5948 26.8012 10.3767 26.9883 10.1904C27.1746 10.0047 27.392 9.85864 27.6356 9.7577C28.1219 9.55723 28.676 9.55653 29.163 9.7577C29.4066 9.85864 29.624 10.0047 29.8103 10.1904C29.9967 10.3767 30.1421 10.5948 30.2431 10.8377C30.344 11.0812 30.3948 11.3388 30.3948 11.6021V22.7992ZM14.6558 14.6535C13.9753 15.334 13.5998 16.2389 13.5991 17.2003V28.398C13.5991 28.9309 13.3915 29.4321 13.0139 29.8098C12.26 30.565 10.9442 30.565 10.1896 29.8098C9.8127 29.4321 9.60518 28.9309 9.60518 28.398V17.2009C9.60659 15.3806 10.2624 13.6195 11.4518 12.2416C12.6419 10.8638 14.288 9.95887 16.0887 9.69205C16.4593 9.63699 16.8313 9.60947 17.2019 9.60947C18.6327 9.60947 20.0445 10.0146 21.2656 10.7875C21.8424 11.1525 22.3626 11.5908 22.8158 12.0877C22.82 12.0835 22.8228 12.0786 22.827 12.0743L22.8376 12.1146C23.5824 12.9383 24.1443 13.9209 24.4711 14.998L24.5021 15.1003C24.7005 15.7836 24.8007 16.4902 24.8014 17.2003V22.7992C24.8014 23.1951 24.6849 23.5784 24.4647 23.9073C24.2445 24.2363 23.9353 24.4904 23.5696 24.6428C23.3318 24.7417 23.0805 24.7883 22.827 24.7911V24.7946C22.8172 24.7946 22.808 24.7917 22.7982 24.7917C22.6711 24.7917 22.5433 24.7833 22.4163 24.7579C22.3428 24.7438 22.2716 24.7212 22.2009 24.6986V24.6887C22.1529 24.6732 22.1035 24.6654 22.057 24.6456C21.6913 24.4932 21.3821 24.2391 21.1619 23.9102C20.9417 23.5806 20.8252 23.1973 20.8252 22.802V17.7311H20.8238V17.1995C20.8224 16.7217 20.7292 16.2566 20.5464 15.8175C20.3629 15.3778 20.0981 14.9839 19.76 14.6472C19.4219 14.3112 19.0266 14.0493 18.5847 13.8679C18.1435 13.6865 17.6748 13.5891 17.2019 13.5976C16.2405 13.5983 15.3362 13.9738 14.6558 14.6535ZM30.9433 9.05678C30.2628 8.37704 29.3593 8.00223 28.3986 8.00082H28.3972C27.4365 8.00365 26.5337 8.37916 25.8546 9.0589C25.1769 9.73864 24.8028 10.6414 24.8014 11.6021V12.0066C23.7892 10.5278 22.3619 9.37018 20.6833 8.68409C18.5917 7.83142 16.2666 7.77282 14.1334 8.52527C12.3306 9.16478 10.7939 10.328 9.68988 11.8894C8.58588 13.4515 8.00141 15.2881 8 17.2003V28.398C8 29.3601 8.37482 30.2643 9.05529 30.9448C9.73506 31.6252 10.64 32 11.6021 32C12.5642 32 13.4685 31.6252 14.1489 30.9448C14.8294 30.2643 15.2042 29.3601 15.2042 28.398V27.9964C16.2172 29.4744 17.6431 30.632 19.3217 31.3167C21.4117 32.1694 23.7363 32.2252 25.8687 31.4748C27.6708 30.836 29.2061 29.6721 30.3109 28.1107C31.4141 26.5486 31.9986 24.7134 32 22.802V11.6014C31.9986 10.6407 31.6231 9.73723 30.9433 9.05678Z" fill="url(#paint0_linear_70_1793)"/>
<defs>
<linearGradient id="paint0_linear_70_1793" x1="6.94117" y1="31.8227" x2="31.8625" y2="5.1246" gradientUnits="userSpaceOnUse">
<stop offset="0.05" stop-color="#A0ADFF"/>
<stop offset="1" stop-color="#4C52D8"/>
</linearGradient>
</defs>
</svg>
